#N canvas 965 396 943 315 10;
#N canvas 761 334 824 500 visualizacion 0;
#X obj 104 69 r sample-start-length;
#X obj 340 41 r stop-sampling;
#X obj 267 129 r sample-end-length;
#X obj 416 114 r sample-dur;
#X obj 104 118 nbx 6 14 0 1e+37 0 0 empty empty empty 0 -8 0 10 -261234
-1 -1 441000 256;
#X obj 103 147 nbx 6 14 -1e+37 1e+37 0 0 empty empty empty 0 -8 0 10
-261234 -1 -1 58123 256;
#X obj 103 178 nbx 6 14 -1e+37 1e+37 0 0 empty empty empty 0 -8 0 10
-261234 -1 -1 1318 256;
#X msg 416 137 set \$1;
#X msg 416 160 1318;
#X text 102 102 Samplesize Default;
#X text 102 131 Samplesize Real;
#X text 102 161 Duracion Sample;
#X obj 103 208 nbx 6 14 -1e+37 1e+37 0 0 empty empty empty 0 -8 0 10
-261682 -1 -1 0 256;
#X obj 103 238 nbx 6 14 -1e+37 1e+37 0 0 empty empty empty 0 -8 0 10
-261682 -1 -1 0 256;
#X text 102 221 Nota: ID;
#X text 102 191 Nota: MIDI;
#X obj 411 209 r nt;
#X obj 411 232 unpack f f;
#X obj 388 291 r octave-value;
#X obj 102 268 nbx 6 14 -1e+37 1e+37 0 0 empty empty empty 0 -8 0 10
-261682 -1 -1 0 256;
#X text 101 251 Octava;
#X obj 578 174 s bang-rec;
#X obj 543 86 bng 15 250 50 0 empty empty empty 17 7 0 10 -262144 -1
-1;
#X text 634 83 sector color bang rec;
#X msg 597 147 color 13 13;
#X msg 532 148 color 0 0;
#X obj 544 39 tgl 15 0 empty display-rec? grabando? 17 7 0 10 -261234
-1 -1 0 1;
#X obj 544 64 metro 500;
#X obj 564 120 del 100;
#X connect 0 0 4 0;
#X connect 1 0 8 0;
#X connect 2 0 5 0;
#X connect 3 0 7 0;
#X connect 7 0 8 0;
#X connect 8 0 6 0;
#X connect 16 0 17 0;
#X connect 17 0 12 0;
#X connect 17 1 13 0;
#X connect 18 0 19 0;
#X connect 22 0 24 0;
#X connect 22 0 28 0;
#X connect 24 0 21 0;
#X connect 25 0 21 0;
#X connect 26 0 27 0;
#X connect 27 0 22 0;
#X connect 28 0 25 0;
#X coords 0 -1 1 1 120 200 2 100 100;
#X restore 9 7 pd visualizacion;
#N canvas 4 82 675 566 keyboard 0;
#X obj 159 217 sel 100;
#X obj 217 219 sel 114;
#X obj 121 251 bng 15 250 50 0 empty empty empty 17 7 0 10 -262144
-1 -1;
#X obj 181 254 bng 15 250 50 0 empty empty empty 17 7 0 10 -262144
-1 -1;
#X obj 118 282 s nota-1;
#X obj 182 279 s nota-2;
#X obj 279 216 sel 101;
#X obj 253 250 bng 15 250 50 0 empty empty empty 17 7 0 10 -262144
-1 -1;
#X text 280 202 e;
#X text 168 201 d;
#X text 224 204 r;
#X obj 254 277 s nota-3;
#X obj 28 332 bng 15 250 50 0 empty empty empty 17 7 0 10 -262144 -1
-1;
#X obj 85 332 bng 15 250 50 0 empty empty empty 17 7 0 10 -262144 -1
-1;
#X obj 343 313 bng 15 250 50 0 empty empty empty 17 7 0 10 -262144
-1 -1;
#X obj 392 315 bng 15 250 50 0 empty empty empty 17 7 0 10 -262144
-1 -1;
#X obj 12 365 s nota-4;
#X obj 77 364 s nota-5;
#X obj 351 350 s nota-6;
#X obj 419 348 s nota-7;
#X floatatom 255 67 5 0 0 0 - - -;
#X obj 331 217 sel 119;
#X obj 384 217 sel 113;
#X text 337 202 w;
#X text 387 201 q;
#X obj 53 226 sel 97;
#X text 51 208 a;
#X obj 105 222 sel 115;
#X text 110 206 s;
#X text 296 127 prueba disparo teclado;
#X obj 157 49 spigot;
#X obj 157 19 key;
#X obj 190 10 inlet;
#X connect 0 0 2 0;
#X connect 1 0 3 0;
#X connect 2 0 4 0;
#X connect 3 0 5 0;
#X connect 6 0 7 0;
#X connect 7 0 11 0;
#X connect 12 0 16 0;
#X connect 13 0 17 0;
#X connect 14 0 18 0;
#X connect 15 0 19 0;
#X connect 21 0 14 0;
#X connect 22 0 15 0;
#X connect 25 0 12 0;
#X connect 27 0 13 0;
#X connect 30 0 22 0;
#X connect 30 0 20 0;
#X connect 30 0 21 0;
#X connect 30 0 6 0;
#X connect 30 0 1 0;
#X connect 30 0 0 0;
#X connect 30 0 27 0;
#X connect 30 0 25 0;
#X connect 31 0 30 0;
#X connect 32 0 30 1;
#X restore 201 41 pd keyboard;
#X obj 201 11 tgl 20 0 empty empty activar_teclado 27 7 0 10 -204786
-1 -1 0 1;
#X obj 260 74 bng 40 250 50 0 empty nota-2 empty 17 7 0 10 -204786
-1 -1;
#X obj 319 74 bng 40 250 50 0 empty nota-3 empty 17 7 0 10 -204786
-1 -1;
#X obj 382 72 bng 40 250 50 0 empty nota-4 empty 17 7 0 10 -204786
-1 -1;
#X obj 450 72 bng 40 250 50 0 empty nota-5 empty 17 7 0 10 -204786
-1 -1;
#X obj 509 72 bng 40 250 50 0 empty nota-6 empty 17 7 0 10 -204786
-1 -1;
#X obj 569 73 bng 40 250 50 0 empty nota-7 empty 17 7 0 10 -204786
-1 -1;
#X obj 510 34 bng 30 250 50 0 down empty empty 17 7 0 10 -261682 -1
-1;
#X obj 579 36 bng 30 250 50 0 up empty empty 17 7 0 10 -261682 -1 -1
;
#X text 587 20 up;
#X text 511 15 down;
#X obj 11 391 hsl 200 10 0 1 0 0 empty slide empty -2 -8 0 10 -262144
-1 -1 0 1;
#X obj 201 75 bng 40 250 50 0 empty nota-1 empty 17 7 0 10 -204786
-1 -1;
#X text 541 6 octave;
#X text 486 43 -5;
#X text 612 41 +5;
#X msg 201 120 53;
#X msg 260 119 55;
#X msg 319 119 57;
#X msg 382 117 59;
#X msg 450 117 60;
#X msg 509 117 62;
#X msg 569 118 64;
#X obj 201 145 pack f 1;
#X obj 260 144 pack f 2;
#X obj 319 144 pack f 3;
#X obj 382 142 pack f 4;
#X obj 450 142 pack f 5;
#X obj 509 142 pack f 6;
#X obj 569 143 pack f 7;
#X obj 201 170 s nt;
#X obj 260 169 s nt;
#X obj 319 169 s nt;
#X obj 382 167 s nt;
#X obj 450 167 s nt;
#X obj 509 167 s nt;
#X obj 569 168 s nt;
#X obj 445 374 s select-voice;
#X msg 593 372 bang;
#X obj 593 395 s universal-mode;
#X msg 633 422 bang;
#X obj 633 445 s divergence-mode;
#X obj 445 291 hradio 20 1 0 7 empty empty empty 0 -8 0 10 -261234
-1 -1 1;
#X obj 445 321 + 1;
#X obj 487 339 nbx 2 14 0 1e+37 0 0 empty empty empty 0 -8 0 10 -261234
-1 -1 0 256;
#X obj 593 292 hradio 20 1 0 2 empty empty empty 0 -8 0 10 -261234
-1 -1 1;
#X obj 593 322 sel 0 1;
#X msg 302 274 \; connect-osc 1;
#X msg 302 310 \; disconnect-osc 1;
#X obj 14 253 bng 20 250 50 0 empty bang-rec visualizacion_de_que_esta_grabando
27 7 0 10 -262144 -262144 -1;
#X obj 16 224 bng 20 250 50 0 empty rec empezar/detener_grabacion 27
7 0 10 -261234 -1 -1;
#N canvas 4 122 854 397 GUI-select-read-points 0;
#X obj 109 123 hsl 128 15 0 58123 0 0 empty empty start-point -2 -8
0 10 -261234 -1 -1 100 1;
#X obj 132 -2 r sample-end-length;
#X floatatom 184 -32 6 0 0 0 - - -;
#X msg 3 -132 range 0 \$1;
#X obj 3 -80 t a a, f 58;
#X obj 108 154 hsl 128 15 0 58123 0 0 empty empty end-point -2 -8 0
10 -261234 -1 -1 8900 1;
#X floatatom 529 -32 6 0 0 0 - - -;
#X obj 3 -162 t f f, f 62;
#X obj 3 83 s s-read-start-point;
#X obj 348 33 s s-read-end-point;
#X obj 133 -203 r stop-sampling;
#X msg 3 -208 set \$1;
#X msg 3 -185 58123;
#X obj 38 15 r stop-sampling;
#X msg 38 38 0;
#X connect 0 0 2 0;
#X connect 0 0 8 0;
#X connect 1 0 11 0;
#X connect 3 0 4 0;
#X connect 4 0 0 0;
#X connect 4 1 5 0;
#X connect 5 0 6 0;
#X connect 5 0 9 0;
#X connect 7 0 3 0;
#X connect 7 1 9 0;
#X connect 10 0 12 0;
#X connect 11 0 12 0;
#X connect 12 0 7 0;
#X connect 13 0 14 0;
#X connect 14 0 8 0;
#X coords 0 -1 1 1 200 80 2 100 100;
#X restore 446 199 pd GUI-select-read-points;
#X obj 256 244 s GUI-rec;
#X obj 13 344 s GUI-vol;
#X obj 16 302 hsl 128 15 0 1 0 0 empty empty control_de_volumen -2
-8 0 10 -204800 -1 -1 7100 1;
#X obj 13 322 * 0.1;
#X obj 173 279 tgl 15 0 empty empty empty 17 7 0 10 -204800 -1 -1 1
1;
#X msg 173 304 \; pd dsp \$1;
#X obj 10 482 list prepend symbol;
#X obj 10 505 list trim;
#X obj 10 554 t a a, f 12;
#X obj 79 588 print;
#X text 9 429 poner la misma ruta donde estan los scripts;
#X obj 399 485 list prepend symbol;
#X obj 399 508 list trim;
#X obj 399 531 openpanel;
#X msg 399 459 .;
#X text 390 432 para probar si esta bien;
#X obj 10 588 s GUI-path;
#X msg 10 531 set write -wave \$1/waveform sample;
#X msg 10 456 .;
#X connect 2 0 1 0;
#X connect 3 0 19 0;
#X connect 4 0 20 0;
#X connect 5 0 21 0;
#X connect 6 0 22 0;
#X connect 7 0 23 0;
#X connect 8 0 24 0;
#X connect 14 0 18 0;
#X connect 18 0 25 0;
#X connect 19 0 26 0;
#X connect 20 0 27 0;
#X connect 21 0 28 0;
#X connect 22 0 29 0;
#X connect 23 0 30 0;
#X connect 24 0 31 0;
#X connect 25 0 32 0;
#X connect 26 0 33 0;
#X connect 27 0 34 0;
#X connect 28 0 35 0;
#X connect 29 0 36 0;
#X connect 30 0 37 0;
#X connect 31 0 38 0;
#X connect 40 0 41 0;
#X connect 42 0 43 0;
#X connect 44 0 45 0;
#X connect 45 0 39 0;
#X connect 45 0 46 0;
#X connect 47 0 48 0;
#X connect 48 0 40 0;
#X connect 48 1 42 0;
#X connect 52 0 54 0;
#X connect 56 0 57 0;
#X connect 57 0 55 0;
#X connect 58 0 59 0;
#X connect 60 0 61 0;
#X connect 61 0 71 0;
#X connect 62 0 70 0;
#X connect 62 1 63 0;
#X connect 65 0 66 0;
#X connect 66 0 67 0;
#X connect 68 0 65 0;
#X connect 71 0 62 0;
#X connect 72 0 60 0;
