#N canvas 48 179 1020 685 10;
#X declare -lib else;
#X declare - lib numusk-audio;
#X obj 132 260 hradio 15 1 0 7 empty empty empty 0 -8 0 10 -262144
-1 -1 6;
#X msg 164 21 up;
#X obj 172 -56 r up;
#X obj 213 -55 r down;
#X obj 216 -34 bng 15 250 50 0 empty empty empty 17 7 0 10 -262144
-1 -1;
#X obj 171 -34 bng 15 250 50 0 empty empty empty 17 7 0 10 -262144
-1 -1;
#X msg 132 133 1;
#X msg 98 132 0;
#X obj 137 -12 t b b;
#X obj 244 -15 t b b;
#X msg 259 11 down;
#X obj 97 99 sel 6;
#X msg 314 132 1;
#X msg 280 134 0;
#X obj 277 98 sel 0;
#X obj 66 187 spigot;
#X obj 249 192 spigot;
#X obj 206 168 r bangdown;
#X obj 32 165 r bangup;
#X obj 247 39 s bangdown;
#X obj 140 42 s bangup;
#X obj 328 100 loadbang;
#X obj 148 96 loadbang;
#X obj 98 165 tgl 15 0 empty empty empty 17 7 0 10 -262144 -1 -1 0
1;
#X obj 281 167 tgl 15 0 empty empty empty 17 7 0 10 -262144 -1 -1 1
1;
#X obj 132 233 cyclone/counter 0 6;
#X obj -3 -61 declare -lib else;
#X obj -17 -82 declare - lib numusk-audio;
#X obj 132 385 s octave-value;
#X msg 22 260 jam 3;
#X obj 22 229 loadbang;
#X obj 132 337 - 3;
#X obj 132 298 t f f, f 20;
#X obj 249 384 s octave-ref;
#X obj 277 65 r octave-ref;
#X obj 97 68 r octave-ref;
#X connect 0 0 32 0;
#X connect 1 0 20 0;
#X connect 2 0 5 0;
#X connect 3 0 4 0;
#X connect 4 0 9 0;
#X connect 5 0 8 0;
#X connect 6 0 23 0;
#X connect 7 0 23 0;
#X connect 8 0 20 0;
#X connect 8 1 1 0;
#X connect 9 0 19 0;
#X connect 9 1 10 0;
#X connect 10 0 19 0;
#X connect 11 0 7 0;
#X connect 11 1 6 0;
#X connect 12 0 24 0;
#X connect 13 0 24 0;
#X connect 14 0 13 0;
#X connect 14 1 12 0;
#X connect 15 0 25 0;
#X connect 16 0 25 0;
#X connect 17 0 16 0;
#X connect 18 0 15 0;
#X connect 21 0 12 0;
#X connect 22 0 6 0;
#X connect 23 0 15 1;
#X connect 24 0 16 1;
#X connect 25 0 0 0;
#X connect 29 0 25 0;
#X connect 30 0 29 0;
#X connect 31 0 28 0;
#X connect 32 0 31 0;
#X connect 32 1 33 0;
#X connect 34 0 14 0;
#X connect 35 0 11 0;
