#N canvas 965 40 943 493 10;
#N canvas 10 40 943 1028 rec-and-reproduce 0;
#X obj 43 114 adc~;
#X obj 47 401 tabwrite~ sample;
#X text 83 115 entrada de audio;
#X msg 176 332 stop;
#X msg 52 328 start;
#X obj 487 186 tgl 15 0 display-rec? empty empty 17 7 0 10 -262144
-1 -1 0 1;
#X obj 487 206 metro 1;
#X obj 488 226 i;
#X obj 524 235 + 1;
#X obj 510 36 + 1;
#X msg 544 108 0;
#X obj 475 59 sel 1 2;
#X obj 558 205 t f b;
#X msg 489 279 set \$1;
#X floatatom 489 373 5 0 0 0 - - -;
#X msg 489 305 0;
#X obj 490 399 * 44.1;
#X obj 578 93 t b b;
#X obj 310 137 t b b b;
#X msg 332 308 \; sample resize \$1;
#X obj 311 159 bng 15 250 50 0 empty empty empty 17 7 0 10 -262144
-1 -1;
#X obj 311 182 expr 44100 * 10;
#X obj 311 211 nbx 10 14 -1e+37 1e+37 0 0 empty empty empty 0 -8 0
10 -262144 -1 -1 0 256;
#X msg 674 451 \; sample resize \$1;
#X obj 517 488 array size sample;
#X obj 475 36 1;
#X obj 490 425 t b b f, f 21;
#X obj 475 2 inlet;
#X obj 489 350 - 1;
#X msg 354 351 \; sample resize 0;
#X obj 311 230 t f f b;
#X obj 489 329 + 1000;
#X obj 52 358 t b b;
#X msg 96 357 1;
#X msg 312 343 set \$1;
#X msg 306 364 441000;
#X obj 134 332 t f b;
#X obj 614 395 s sample-dur;
#X msg 551 451 \; sample normalize 1;
#X obj 476 98 spigot;
#X msg 489 78 1;
#X obj 306 388 s sample-start-length;
#X obj 517 512 s sample-end-length;
#X obj 133 362 s start-sampling;
#X obj 662 301 sel 1;
#X obj 662 278 expr $f1 > 9001;
#X obj 488 252 t f f f;
#X obj 613 339 + 1000;
#X obj 572 309 moses 1;
#X obj 614 362 - 1;
#X msg 490 490 0;
#X obj 491 533 s stop-sampling;
#X obj 490 465 t b b;
#X connect 0 0 1 0;
#X connect 3 0 1 0;
#X connect 4 0 32 0;
#X connect 5 0 6 0;
#X connect 6 0 7 0;
#X connect 7 0 8 0;
#X connect 7 0 46 0;
#X connect 8 0 7 1;
#X connect 9 0 25 1;
#X connect 10 0 5 0;
#X connect 10 0 12 0;
#X connect 10 0 25 0;
#X connect 10 0 39 1;
#X connect 11 0 18 0;
#X connect 11 0 39 0;
#X connect 11 1 17 0;
#X connect 12 0 7 0;
#X connect 12 1 15 0;
#X connect 13 0 15 0;
#X connect 14 0 16 0;
#X connect 15 0 31 0;
#X connect 16 0 26 0;
#X connect 17 0 10 0;
#X connect 17 1 3 0;
#X connect 18 0 4 0;
#X connect 18 1 5 0;
#X connect 18 2 20 0;
#X connect 20 0 21 0;
#X connect 21 0 22 0;
#X connect 22 0 30 0;
#X connect 24 0 42 0;
#X connect 25 0 9 0;
#X connect 25 0 11 0;
#X connect 26 0 52 0;
#X connect 26 1 38 0;
#X connect 26 2 23 0;
#X connect 27 0 25 0;
#X connect 28 0 14 0;
#X connect 30 0 34 0;
#X connect 30 1 19 0;
#X connect 30 2 29 0;
#X connect 31 0 28 0;
#X connect 32 0 1 0;
#X connect 32 1 33 0;
#X connect 33 0 36 0;
#X connect 34 0 35 0;
#X connect 35 0 41 0;
#X connect 36 0 43 0;
#X connect 36 1 35 0;
#X connect 40 0 39 1;
#X connect 44 0 17 0;
#X connect 45 0 44 0;
#X connect 46 0 13 0;
#X connect 46 1 48 0;
#X connect 46 2 45 0;
#X connect 47 0 49 0;
#X connect 48 1 47 0;
#X connect 49 0 37 0;
#X connect 50 0 51 0;
#X connect 52 0 50 0;
#X connect 52 1 24 0;
#X restore -106 46 pd rec-and-reproduce;
#N canvas 965 40 943 314 osc-routes 0;
#X text 16 1 ENVIAR LA DATA DEL ARRAY A PYTHON;
#X obj 282 547 netsend -u -b;
#X msg 378 529 connect localhost 3001;
#X msg 537 529 disconnect;
#X obj 378 494 r connect-osc;
#X obj 537 496 r disconnect-osc;
#X msg 27 201 1;
#X msg 102 201 0;
#X obj 282 331 list prepend send;
#X obj 282 356 list trim;
#X obj 27 504 list prepend send;
#X obj 27 529 list trim;
#X obj 27 478 oscformat sample state;
#X obj 294 196 r sample-start-length;
#X obj 27 27 r start-sampling;
#X obj 282 305 oscformat sample size;
#X obj 102 77 r stop-sampling;
#X msg 294 219 set \$1;
#X msg 282 252 441000;
#X msg 461 262 set \$1;
#X msg 447 287 70427;
#X obj 461 239 r sample-end-length;
#X obj 102 100 t b b, f 58;
#X obj 27 54 t b b, f 43;
#X obj 94 283 r from-interface-data;
#X obj 27 395 pack f f f, f 14;
#X obj 94 350 unpack f f;
#X obj 40 368 t b f, f 6;
#X obj 35 428 print;
#X connect 2 0 1 0;
#X connect 3 0 1 0;
#X connect 4 0 2 0;
#X connect 5 0 3 0;
#X connect 6 0 25 0;
#X connect 7 0 25 0;
#X connect 8 0 9 0;
#X connect 9 0 1 0;
#X connect 10 0 11 0;
#X connect 11 0 1 0;
#X connect 12 0 10 0;
#X connect 13 0 17 0;
#X connect 14 0 23 0;
#X connect 15 0 8 0;
#X connect 16 0 22 0;
#X connect 17 0 18 0;
#X connect 18 0 15 0;
#X connect 19 0 20 0;
#X connect 20 0 15 0;
#X connect 21 0 19 0;
#X connect 22 0 7 0;
#X connect 22 1 20 0;
#X connect 23 0 6 0;
#X connect 23 1 18 0;
#X connect 24 0 26 0;
#X connect 25 0 12 0;
#X connect 25 0 28 0;
#X connect 26 0 27 0;
#X connect 26 1 25 2;
#X connect 27 0 25 0;
#X connect 27 1 25 1;
#X restore -103 179 pd osc-routes;
#X f 16;
#X msg 56 7 \; connect-osc 1;
#X msg 56 43 \; disconnect-osc 1;
#N canvas 965 254 943 172 sample-pitch-processing 0;
#X msg 316 57 set \$1;
#X msg 316 80 1160;
#X obj 359 157 r octave-value;
#N canvas 0 78 1920 1002 sample-octave-change 0;
#X obj 560 241 expr $f1 >= 0;
#X obj 630 397 tgl 15 0 empty empty empty 17 7 0 10 -262144 -1 -1 1
1;
#X obj 491 345 tgl 15 0 empty empty empty 17 7 0 10 -262144 -1 -1 0
1;
#X obj 560 264 sel 0 1;
#X msg 524 310 0;
#X msg 491 309 1;
#X obj 491 282 t b b;
#X msg 594 352 0;
#X msg 631 351 1;
#X obj 602 325 t b b;
#X obj 414 412 spigot;
#X obj 465 412 spigot;
#X obj 414 215 t f f;
#X obj 414 248 t f f, f 9;
#X obj 527 509 expr $f1 / $f2;
#X obj 465 280 + 1;
#X obj 414 280 - 1;
#X obj 243 308 t f f;
#X obj 383 507 expr $f1 * $f2;
#X obj 497 602 outlet;
#X obj 414 166 inlet;
#X obj 243 254 inlet;
#X obj 243 347 pack f f;
#X obj 308 347 pack f f;
#X obj 414 441 unpack f f;
#X obj 486 441 unpack f f;
#X obj 440 554 abs;
#X connect 0 0 3 0;
#X connect 1 0 11 1;
#X connect 2 0 10 1;
#X connect 3 0 6 0;
#X connect 3 1 9 0;
#X connect 4 0 1 0;
#X connect 5 0 2 0;
#X connect 6 0 5 0;
#X connect 6 1 4 0;
#X connect 7 0 2 0;
#X connect 8 0 1 0;
#X connect 9 0 8 0;
#X connect 9 1 7 0;
#X connect 10 0 24 0;
#X connect 11 0 25 0;
#X connect 12 0 13 0;
#X connect 12 1 0 0;
#X connect 13 0 16 0;
#X connect 13 1 15 0;
#X connect 14 0 19 0;
#X connect 15 0 23 1;
#X connect 16 0 22 1;
#X connect 17 0 22 0;
#X connect 17 1 23 0;
#X connect 18 0 26 0;
#X connect 20 0 12 0;
#X connect 21 0 17 0;
#X connect 22 0 10 0;
#X connect 23 0 11 0;
#X connect 24 0 18 0;
#X connect 24 1 18 1;
#X connect 25 0 14 0;
#X connect 25 1 14 1;
#X connect 26 0 19 0;
#X restore 251 229 pd sample-octave-change;
#X obj 359 180 t b f;
#X obj 44 265 outlet~;
#X obj 44 132 + 1;
#X obj 44 108 f;
#X obj 44 242 clone sample-note-change 8;
#X obj 44 156 mod 8;
#X obj 44 -72 t b f, f 8;
#X obj 44 212 pack f f f f f;
#X obj 272 32 t b f;
#N canvas 717 162 1005 683 selector 0;
#X obj 74 68 sel 1 2 3 4 5 6 7, f 138;
#X obj 41 700 spigot;
#X msg 74 662 1;
#X obj 74 639 t b b, f 6;
#X msg 107 661 0;
#X obj 107 684 s stop-all;
#X obj 781 682 r stop-all;
#X obj 86 -139 t b f;
#X msg 41 746 3881.8 10536.3;
#X obj 157 603 spigot;
#X msg 190 565 1;
#X obj 190 542 t b b, f 6;
#X msg 223 564 0;
#X obj 223 587 s stop-all;
#X msg 157 649 3881.8 10536.3;
#X obj 276 516 spigot;
#X msg 309 478 1;
#X obj 309 455 t b b, f 6;
#X msg 342 477 0;
#X obj 342 500 s stop-all;
#X msg 276 562 3881.8 10536.3;
#X obj 394 431 spigot;
#X msg 427 393 1;
#X obj 427 370 t b b, f 6;
#X msg 460 392 0;
#X obj 460 415 s stop-all;
#X msg 394 477 3881.8 10536.3;
#X obj 512 342 spigot;
#X msg 545 304 1;
#X obj 545 281 t b b, f 6;
#X msg 578 303 0;
#X obj 578 326 s stop-all;
#X msg 512 388 3881.8 10536.3;
#X obj 630 252 spigot;
#X msg 663 214 1;
#X obj 663 191 t b b, f 6;
#X msg 696 213 0;
#X obj 696 236 s stop-all;
#X msg 630 298 3881.8 10536.3;
#X obj 748 169 spigot;
#X msg 781 131 1;
#X obj 781 108 t b b, f 6;
#X msg 814 130 0;
#X obj 814 153 s stop-all;
#X msg 748 215 3881.8 10536.3;
#X obj 41 -242 r s-read-start-point;
#X obj 86 -193 r s-read-end-point;
#X msg 41 723 set \$1 \$2;
#X msg 157 626 set \$1 \$2;
#X msg 276 539 set \$1 \$2;
#X msg 394 454 set \$1 \$2;
#X msg 512 365 set \$1 \$2;
#X msg 630 275 set \$1 \$2;
#X msg 748 192 set \$1 \$2;
#X obj 628 765 outlet;
#X obj 74 -13 r select-voice;
#X msg 157 -70 0;
#X msg 195 -71 1;
#X obj 257 6 spigot;
#X msg 289 -33 0;
#X msg 327 -34 1;
#X obj 41 -106 pack f f;
#X obj 41 151 spigot;
#X obj 41 -78 t a a;
#X obj 112 824 sel 1 2 3 4 5 6 7;
#X obj 327 -80 r universal-mode;
#X obj 195 -121 r divergence-mode;
#X obj 112 784 inlet;
#X connect 0 0 3 0;
#X connect 0 1 11 0;
#X connect 0 2 17 0;
#X connect 0 3 23 0;
#X connect 0 4 29 0;
#X connect 0 5 35 0;
#X connect 0 6 41 0;
#X connect 1 0 47 0;
#X connect 2 0 1 1;
#X connect 3 0 2 0;
#X connect 3 1 4 0;
#X connect 4 0 5 0;
#X connect 6 0 1 1;
#X connect 6 0 9 1;
#X connect 6 0 39 1;
#X connect 6 0 33 1;
#X connect 6 0 27 1;
#X connect 6 0 21 1;
#X connect 6 0 15 1;
#X connect 7 0 61 0;
#X connect 7 1 61 1;
#X connect 8 0 54 0;
#X connect 9 0 48 0;
#X connect 10 0 9 1;
#X connect 11 0 10 0;
#X connect 11 1 12 0;
#X connect 12 0 13 0;
#X connect 14 0 54 0;
#X connect 15 0 49 0;
#X connect 16 0 15 1;
#X connect 17 0 16 0;
#X connect 17 1 18 0;
#X connect 18 0 19 0;
#X connect 20 0 54 0;
#X connect 21 0 50 0;
#X connect 22 0 21 1;
#X connect 23 0 22 0;
#X connect 23 1 24 0;
#X connect 24 0 25 0;
#X connect 26 0 54 0;
#X connect 27 0 51 0;
#X connect 28 0 27 1;
#X connect 29 0 28 0;
#X connect 29 1 30 0;
#X connect 30 0 31 0;
#X connect 32 0 54 0;
#X connect 33 0 52 0;
#X connect 34 0 33 1;
#X connect 35 0 34 0;
#X connect 35 1 36 0;
#X connect 36 0 37 0;
#X connect 38 0 54 0;
#X connect 39 0 53 0;
#X connect 40 0 39 1;
#X connect 41 0 40 0;
#X connect 41 1 42 0;
#X connect 42 0 43 0;
#X connect 44 0 54 0;
#X connect 45 0 61 0;
#X connect 46 0 7 0;
#X connect 47 0 8 0;
#X connect 48 0 14 0;
#X connect 49 0 20 0;
#X connect 50 0 26 0;
#X connect 51 0 32 0;
#X connect 52 0 38 0;
#X connect 53 0 44 0;
#X connect 55 0 0 0;
#X connect 56 0 62 1;
#X connect 57 0 59 0;
#X connect 57 0 62 1;
#X connect 58 0 47 0;
#X connect 58 0 53 0;
#X connect 58 0 52 0;
#X connect 58 0 51 0;
#X connect 58 0 50 0;
#X connect 58 0 49 0;
#X connect 58 0 48 0;
#X connect 59 0 58 1;
#X connect 60 0 58 1;
#X connect 60 0 56 0;
#X connect 61 0 63 0;
#X connect 62 0 1 0;
#X connect 62 0 9 0;
#X connect 62 0 39 0;
#X connect 62 0 33 0;
#X connect 62 0 27 0;
#X connect 62 0 21 0;
#X connect 62 0 15 0;
#X connect 63 0 62 0;
#X connect 63 1 58 0;
#X connect 64 0 8 0;
#X connect 64 1 14 0;
#X connect 64 2 20 0;
#X connect 64 3 26 0;
#X connect 64 4 32 0;
#X connect 64 5 38 0;
#X connect 64 6 44 0;
#X connect 65 0 60 0;
#X connect 66 0 57 0;
#X connect 67 0 64 0;
#X restore 101 -237 pd selector;
#X obj 263 -199 t a a, f 12;
#X obj 389 -122 / 44.1;
#X obj 389 -96 i;
#X obj 389 -73 + 1;
#X obj 389 -149 / 1.1;
#X obj 332 -171 unpack f f;
#X obj 332 -122 / 44.1;
#X obj 332 -96 i;
#X obj 332 -73 + 1;
#X obj 332 -149 / 1.1;
#X obj 389 14 - 0, f 4;
#X obj 332 -34 t b f;
#X obj 263 -172 unpack f f;
#X floatatom 426 -27 5 0 0 0 - - -;
#X obj 44 -316 r nt;
#X obj 44 -286 unpack f f;
#X obj 330 23 abs;
#X connect 0 0 1 0;
#X connect 1 0 3 0;
#X connect 2 0 4 0;
#X connect 3 0 11 2;
#X connect 4 0 1 0;
#X connect 4 1 3 1;
#X connect 6 0 9 0;
#X connect 7 0 6 0;
#X connect 8 0 5 0;
#X connect 9 0 7 1;
#X connect 9 0 11 0;
#X connect 10 0 7 0;
#X connect 10 1 11 1;
#X connect 11 0 8 0;
#X connect 12 0 1 0;
#X connect 12 1 0 0;
#X connect 13 0 14 0;
#X connect 14 0 26 0;
#X connect 14 1 19 0;
#X connect 15 0 16 0;
#X connect 16 0 17 0;
#X connect 17 0 24 0;
#X connect 17 0 27 0;
#X connect 18 0 15 0;
#X connect 19 0 23 0;
#X connect 19 1 18 0;
#X connect 20 0 21 0;
#X connect 21 0 22 0;
#X connect 22 0 25 0;
#X connect 23 0 20 0;
#X connect 24 0 30 0;
#X connect 25 0 24 0;
#X connect 25 1 24 1;
#X connect 26 0 11 4;
#X connect 26 1 11 3;
#X connect 28 0 29 0;
#X connect 29 0 10 0;
#X connect 29 1 13 0;
#X connect 29 1 13 0;
#X connect 30 0 12 0;
#X restore 85 186 pd sample-pitch-processing;
#X msg -109 349 53;
#X msg -50 348 55;
#X msg 9 348 57;
#X msg 72 346 59;
#X msg 140 346 60;
#X msg 199 346 62;
#X msg 259 347 64;
#X obj -109 374 pack f 1;
#X obj -50 373 pack f 2;
#X obj 9 373 pack f 3;
#X obj 72 371 pack f 4;
#X obj 140 371 pack f 5;
#X obj 199 371 pack f 6;
#X obj 259 372 pack f 7;
#X obj -109 399 s nt;
#X obj -50 398 s nt;
#X obj 9 398 s nt;
#X obj 72 396 s nt;
#X obj 140 396 s nt;
#X obj 199 396 s nt;
#X obj 259 397 s nt;
#X obj -106 299 sel 1 2 3 4 5 6 7, f 72;
#X msg -34 5 bang;
#N canvas 965 254 943 172 select-read-points 0;
#X obj 135 182 hsl 128 15 0 70427 0 0 empty empty empty -2 -8 0 10
-262144 -1 -1 0 1;
#X obj 132 -2 r sample-end-length;
#X floatatom 313 197 6 0 0 0 - - -;
#X msg 132 97 range 0 \$1;
#X obj 132 149 t a a, f 58;
#X obj 480 182 hsl 128 15 0 70427 0 0 empty empty empty -2 -8 0 10
-262144 -1 -1 0 1;
#X floatatom 658 197 6 0 0 0 - - -;
#X obj 132 67 t f f, f 62;
#X obj 132 312 s s-read-start-point;
#X obj 477 262 s s-read-end-point;
#X obj 262 26 r stop-sampling;
#X msg 132 21 set \$1;
#X msg 132 44 70427;
#X obj 167 244 r stop-sampling;
#X msg 167 267 0;
#X connect 0 0 2 0;
#X connect 0 0 8 0;
#X connect 1 0 11 0;
#X connect 3 0 4 0;
#X connect 4 0 0 0;
#X connect 4 1 5 0;
#X connect 5 0 6 0;
#X connect 5 0 9 0;
#X connect 7 0 3 0;
#X connect 7 1 9 0;
#X connect 10 0 12 0;
#X connect 11 0 12 0;
#X connect 12 0 7 0;
#X connect 13 0 14 0;
#X connect 14 0 8 0;
#X restore 86 161 pd select-read-points;
#X msg 394 245 bang;
#X obj 394 268 s universal-mode;
#X msg 434 295 bang;
#X obj 434 318 s divergence-mode;
#X obj 394 195 sel 0 1;
#X obj 296 244 s select-voice;
#X obj 296 191 + 1;
#X obj -109 439 array define sample;
#X obj 394 129 loadbang;
#X msg 394 154 0;
#X obj 85 209 *~ 0.01;
#X obj 85 232 dac~;
#X obj -106 6 r GUI-rec;
#X obj 169 229 r GUI-vol;
#X obj -99 587 soundfiler;
#X obj -99 496 r stop-sampling;
#N canvas 10 40 943 1028 interface-data 0;
#X obj 108 19 r sample-end-length;
#X obj 238 47 r stop-sampling;
#X msg 108 42 set \$1;
#X msg 108 65 70427;
#X obj 97 154 r s-read-start-point;
#X obj 238 154 r s-read-end-point;
#X obj 238 177 /;
#X obj 112 127 t f f, f 24;
#X obj 97 177 /;
#X obj 97 200 * 128;
#X obj 238 200 * 128;
#X obj 97 253 pack f f, f 24;
#X obj 97 276 s from-interface-data;
#X obj 238 226 t b f;
#X connect 0 0 2 0;
#X connect 1 0 3 0;
#X connect 2 0 3 0;
#X connect 3 0 7 0;
#X connect 4 0 8 0;
#X connect 5 0 6 0;
#X connect 6 0 10 0;
#X connect 7 0 8 1;
#X connect 7 1 6 1;
#X connect 8 0 9 0;
#X connect 9 0 11 0;
#X connect 10 0 13 0;
#X connect 11 0 12 0;
#X connect 13 0 11 0;
#X connect 13 1 11 1;
#X restore -104 139 pd interface-data;
#X obj 52 497 r GUI-path;
#X msg -99 528;
#X connect 4 0 39 0;
#X connect 5 0 12 0;
#X connect 6 0 13 0;
#X connect 7 0 14 0;
#X connect 8 0 15 0;
#X connect 9 0 16 0;
#X connect 10 0 17 0;
#X connect 11 0 18 0;
#X connect 12 0 19 0;
#X connect 13 0 20 0;
#X connect 14 0 21 0;
#X connect 15 0 22 0;
#X connect 16 0 23 0;
#X connect 17 0 24 0;
#X connect 18 0 25 0;
#X connect 26 0 5 0;
#X connect 26 1 6 0;
#X connect 26 2 7 0;
#X connect 26 3 8 0;
#X connect 26 4 9 0;
#X connect 26 5 10 0;
#X connect 26 6 11 0;
#X connect 27 0 0 0;
#X connect 29 0 30 0;
#X connect 31 0 32 0;
#X connect 33 0 29 0;
#X connect 33 1 31 0;
#X connect 35 0 34 0;
#X connect 37 0 38 0;
#X connect 38 0 33 0;
#X connect 39 0 40 0;
#X connect 39 0 40 1;
#X connect 41 0 0 0;
#X connect 42 0 39 1;
#X connect 44 0 47 0;
#X connect 46 0 47 0;
#X connect 47 0 43 0;
