#N canvas 968 234 744 631 12;
#X obj 371 242 tgl 15 0 empty empty empty 17 7 0 10 -262144 -1 -1 1
1;
#X obj 232 190 tgl 15 0 empty empty empty 17 7 0 10 -262144 -1 -1 0
1;
#X obj 301 108 sel 0 1;
#X msg 265 155 0;
#X msg 232 154 1;
#X obj 232 127 t b b;
#X msg 335 197 0;
#X msg 372 196 1;
#X obj 343 170 t b b;
#X obj 173 281 spigot;
#X obj 256 280 spigot;
#X obj 177 -59 inlet;
#X obj 46 200 pack f f;
#X obj 114 200 pack f f;
#X obj 173 310 unpack f f;
#X obj 256 310 unpack f f;
#X obj 301 85 expr $f1 >= 60;
#X obj 100 40 - 60;
#X obj 100 81 / 12;
#X obj 100 60 abs;
#X msg 100 -10 60;
#X obj 100 -32 loadbang;
#X obj 100 106 + 1;
#X obj 100 14 t f f;
#X obj 100 131 t f f;
#X obj 197 364 * 1;
#X obj 280 363 / 1;
#X obj 218 337 pipe 1;
#X obj 301 336 pipe 1;
#X obj 502 501 line~;
#X obj 503 537 tabread4~ sample;
#X obj 255 26 t f f;
#X obj 557 308 t b f;
#X obj 503 562 outlet~;
#X obj 177 -6 unpack f f f f, f 34;
#X msg 412 29 set \$1;
#X obj 504 378 pack f f f;
#X msg 435 358 0;
#X msg 504 408 \$1 \, \$2 \$3;
#X connect 0 0 10 1;
#X connect 1 0 9 1;
#X connect 2 0 5 0;
#X connect 2 1 8 0;
#X connect 3 0 0 0;
#X connect 4 0 1 0;
#X connect 5 0 4 0;
#X connect 5 1 3 0;
#X connect 6 0 1 0;
#X connect 7 0 0 0;
#X connect 8 0 7 0;
#X connect 8 1 6 0;
#X connect 9 0 14 0;
#X connect 10 0 15 0;
#X connect 11 0 34 0;
#X connect 12 0 9 0;
#X connect 13 0 10 0;
#X connect 14 0 25 1;
#X connect 14 1 27 0;
#X connect 15 0 26 1;
#X connect 15 1 28 0;
#X connect 16 0 2 0;
#X connect 17 0 19 0;
#X connect 18 0 22 0;
#X connect 19 0 18 0;
#X connect 20 0 23 0;
#X connect 21 0 20 0;
#X connect 22 0 24 0;
#X connect 23 0 17 0;
#X connect 23 1 16 0;
#X connect 24 0 12 0;
#X connect 24 1 13 0;
#X connect 25 0 32 0;
#X connect 26 0 32 0;
#X connect 27 0 25 0;
#X connect 28 0 26 0;
#X connect 29 0 30 0;
#X connect 30 0 33 0;
#X connect 31 0 12 1;
#X connect 31 1 13 1;
#X connect 32 0 37 0;
#X connect 32 1 36 2;
#X connect 34 0 23 0;
#X connect 34 1 31 0;
#X connect 34 2 36 1;
#X connect 34 3 35 0;
#X connect 35 0 37 0;
#X connect 36 0 38 0;
#X connect 37 0 36 0;
#X connect 38 0 29 0;
