#N canvas 10 29 937 1001 12;
#X obj 29 81 loadbang;
#X msg 29 136 connect localhost 3000;
#X obj 29 -45 oscformat;
#X obj 29 26 netsend -u -b;
#X obj 389 -796 tgl 20 0 empty empty grabar/parar 25 10 0 12 #fcfcfc #000000 #000000 0 1;
#X obj 498 -222 t f b;
#X msg 517 -33 set notes;
#X obj 485 -69 t f b;
#X obj 29 -335 t f b;
#X obj 163 -314 t f b;
#X obj 321 -296 t f b;
#X msg 61 -222 set menu;
#X msg 530 -132 set rec;
#X obj 658 25 t f b;
#X msg 690 56 set dsp;
#X obj 812 -834 tgl 20 0 empty empty dsp\ on/off 0 -10 0 12 #fcfcfc #000000 #000000 0 1;
#X msg 195 -246 set first-pot;
#X msg 353 -248 set second-pot;
#X obj 26 246 oscparse;
#X obj 26 269 list trim;
#X obj 26 295 route menu first-pot second-pot rec notes dsp;
#X obj 48 415 print menu;
#X obj 152 434 print pot1;
#X obj 268 466 print pot2;
#X obj 371 508 print rec;
#X obj 467 540 print notes;
#X obj 551 570 print dsp;
#X msg 161 192 listen 3000;
#X msg 255 217 listen 0;
#X obj 26 221 netreceive -u -b;
#X obj 149 -858 hsl 128 15 0 1 0 0 empty empty pot1 -2 -8 0 10 #fcfcfc #000000 #000000 0 1;
#X obj 249 -807 hsl 128 15 0 1 0 0 empty empty pot2 -2 -8 0 10 #fcfcfc #000000 #000000 0 1;
#X obj 12 -679 cnv 15 575 250 empty empty empty 20 12 0 14 #c4fcc4 #404040 0;
#X text 18 -673 menu mockup;
#X obj 117 -539 hsl 128 15 -3 3 0 0 empty empty empty -2 -8 0 10 #fcfcc4 #000000 #000000 0 1;
#X obj 114 -493 hradio 15 1 0 5 empty empty empty 0 -8 0 10 #fcfcc4 #000000 #000000 0;
#X obj 114 -449 hradio 15 1 0 5 empty empty empty 0 -8 0 10 #fcfcc4 #000000 #000000 0;
#X text 198 -479 estas dos opciones se confirman con el boton de grabar/parar.;
#X text 254 -542 strech/shrink u octavador.;
#X obj 14 -587 vradio 15 1 0 4 empty empty empty 0 -8 0 10 #fcfcc4 #000000 #000000 0;
#X obj 114 -517 r op3;
#X obj 114 -473 r op4;
#X obj 114 -586 tgl 15 0 empty empty empty 17 7 0 10 #fcfcc4 #000000 #000000 0 1;
#X obj 114 -563 r op2;
#X text 172 -674 el default de pot1 y 2 es cambiar el start-point y end-point. En divergente se lo cambian a la ultima "nota" tocada.;
#X obj 114 -613 r op1;
#X obj 46 -863 tgl 15 0 empty empty menu 17 7 0 10 #fcfcfc #000000 #000000 0 1;
#X text 432 -848 valores normalizados. Luego se mapea en un rango correspondiente;
#X obj 14 -619 r m;
#X text 42 -495 savepoint;
#X text 40 -452 loadpoint;
#X text 48 -540 duration;
#X text 134 -589 un/div;
#X text 32 -590 selection;
#N canvas 10 29 937 1001 data-pal-dibujito 0;
#X obj 112 344 i;
#X obj 31 421 list prepend;
#X obj 31 446 list trim;
#X obj 112 321 * 4;
#N canvas 965 29 937 300 testin 0;
#X obj 11 64 route 0 1 2 3;
#X obj 64 160 - 3;
#X floatatom 64 185 5 0 0 0 - - - 0;
#X obj 64 135 * 6;
#X obj 117 157 i;
#X obj 119 219 s op3;
#X obj 166 158 i;
#X obj 168 220 s op4;
#X obj 117 132 * 5;
#X obj 166 133 * 5;
#X obj 11 138 i;
#X obj 12 221 s op1;
#X obj 64 219 s op2;
#X obj 11 101 * 2;
#X obj 11 27 inlet;
#X connect 0 0 13 0;
#X connect 0 1 3 0;
#X connect 0 2 8 0;
#X connect 0 3 9 0;
#X connect 1 0 2 0;
#X connect 2 0 12 0;
#X connect 3 0 1 0;
#X connect 4 0 5 0;
#X connect 6 0 7 0;
#X connect 8 0 4 0;
#X connect 9 0 6 0;
#X connect 10 0 11 0;
#X connect 13 0 10 0;
#X connect 14 0 0 0;
#X restore 31 482 pd testin;
#X obj 31 287 spigot;
#X obj 112 287 spigot;
#X obj 112 389 clip 0 3;
#X obj 70 261 t f f, f 12;
#X obj 185 413 s m;
#X obj 185 364 t f f;
#X obj 217 442 s selection;
#X obj 47 30 inlet;
#X obj 101 30 inlet;
#X obj 3 31 inlet;
#X connect 0 0 7 0;
#X connect 0 0 10 0;
#X connect 1 0 2 0;
#X connect 2 0 4 0;
#X connect 3 0 0 0;
#X connect 5 0 1 0;
#X connect 6 0 3 0;
#X connect 7 0 1 1;
#X connect 8 0 5 1;
#X connect 8 1 6 1;
#X connect 10 0 9 0;
#X connect 10 1 11 0;
#X connect 12 0 6 0;
#X connect 13 0 5 0;
#X connect 14 0 8 0;
#X restore 46 -729 pd data-pal-dibujito;
#X f 29;
#X obj 146 -837 t f f;
#X obj 246 -786 t f f;
#X obj 178 -798 s p1;
#X obj 278 -751 s p2;
#X obj 163 -358 r p1;
#X obj 321 -356 r p2;
#X obj 78 -805 s mn;
#X obj 28 -363 r mn;
#X obj 389 -770 s r;
#X obj 498 -255 r r;
#X obj 521 -795 hradio 25 1 0 8 empty empty empty 0 -8 0 10 #fcfcfc #000000 #000000 0;
#X obj 521 -764 s nt;
#X obj 487 -97 r nt;
#X obj 658 -22 r dsp;
#X obj 812 -808 s dsp;
#X obj 46 -836 t f f;
#X connect 0 0 1 0;
#X connect 1 0 3 0;
#X connect 2 0 3 0;
#X connect 4 0 63 0;
#X connect 5 0 2 0;
#X connect 5 1 12 0;
#X connect 6 0 2 0;
#X connect 7 0 2 0;
#X connect 7 1 6 0;
#X connect 8 0 2 0;
#X connect 8 1 11 0;
#X connect 9 0 2 0;
#X connect 9 1 16 0;
#X connect 10 0 2 0;
#X connect 10 1 17 0;
#X connect 11 0 2 0;
#X connect 12 0 2 0;
#X connect 13 0 2 0;
#X connect 13 1 14 0;
#X connect 14 0 2 0;
#X connect 15 0 69 0;
#X connect 16 0 2 0;
#X connect 17 0 2 0;
#X connect 18 0 19 0;
#X connect 19 0 20 0;
#X connect 20 0 21 0;
#X connect 20 1 22 0;
#X connect 20 2 23 0;
#X connect 20 3 24 0;
#X connect 20 4 25 0;
#X connect 20 5 26 0;
#X connect 27 0 29 0;
#X connect 28 0 29 0;
#X connect 29 0 18 0;
#X connect 30 0 55 0;
#X connect 31 0 56 0;
#X connect 40 0 35 0;
#X connect 41 0 36 0;
#X connect 43 0 34 0;
#X connect 45 0 42 0;
#X connect 46 0 70 0;
#X connect 48 0 39 0;
#X connect 55 0 54 1;
#X connect 55 1 57 0;
#X connect 56 0 54 2;
#X connect 56 1 58 0;
#X connect 59 0 9 0;
#X connect 60 0 10 0;
#X connect 62 0 8 0;
#X connect 64 0 5 0;
#X connect 65 0 66 0;
#X connect 67 0 7 0;
#X connect 68 0 13 0;
#X connect 70 0 54 0;
#X connect 70 1 61 0;
