#N canvas 469 123 632 655 10;
#X floatatom -2388 -572 5 0 0 0 - - -;
#X obj -2389 -716 *~;
#X obj -2374 -746 line~;
#X msg -2374 -772 \$1 20;
#X obj -2372 -820 knob 32 32 0 1 0 0 empty delay-feedback empty 0 -8
0 8 4.45274e+06 4.45274e+06 4.45274e+06 3100 1;
#X obj -2387 -246 *~;
#X obj -2367 -288 line~;
#X msg -2367 -314 \$1 20;
#X obj -2368 -359 knob 32 32 0 1 0 0 empty delay-vol empty 0 -8 0 8
4.45274e+06 4.45274e+06 4.45274e+06 3100 1;
#X obj -2144 -572 r~ sampler1;
#X obj -2034 -571 r~ sampler2;
#X obj -2388 -60 dac~ 1;
#X floatatom -2235 -569 5 0 0 0 - - -;
#X obj -2229 -716 *~;
#X obj -2214 -746 line~;
#X msg -2214 -772 \$1 20;
#X obj -2211 -816 knob 32 32 0 1 0 0 empty delay-feedback empty 0 -8
0 8 4.45274e+06 4.45274e+06 4.45274e+06 3100 1;
#X obj -2253 -244 *~;
#X obj -2228 -289 line~;
#X msg -2228 -315 \$1 20;
#X obj -2225 -359 knob 32 32 0 1 0 0 empty delay-vol empty 0 -8 0 8
4.45274e+06 4.45274e+06 4.45274e+06 3100 1;
#X obj -2254 -58 dac~ 2;
#X obj -2390 -844 r~ delay1;
#X obj -2389 -653 delwrite~ delay1 3000;
#X obj -2388 -449 vd~ delay1;
#X obj -2389 -420 s~ delay1;
#X obj -2388 -389 r~ delay1;
#X obj -2230 -844 r~ delay2;
#X obj -2229 -653 delwrite~ delay2 3000;
#X obj -2254 -447 vd~ delay2;
#X obj -2255 -418 s~ delay2;
#X obj -2254 -387 r~ delay2;
#X obj -2390 -619 r delay-tiempo;
#X obj -2378 -598 * 3000;
#X obj -2245 -615 r delay-tiempo;
#X obj -2233 -593 * 3000;
#X obj -2130 -340 line~;
#X obj -2145 -238 dac~ 1;
#X obj -2144 -315 *~;
#X obj -2129 -375 r volumen-fade;
#X obj -2020 -340 line~;
#X obj -2034 -315 *~;
#X obj -2019 -375 r volumen-fade;
#X obj -2035 -238 dac~ 2;
#X text -2078 -594 MASTER;
#X obj -2389 -519 line~;
#X msg -2389 -545 \$1 20;
#X obj -2240 -497 line~;
#X msg -2236 -524 \$1 20;
#X obj -2206 -682 r~ sampler2-confade;
#X obj -2381 -677 r~ sampler1-confade;
#X obj -2144 -208 s~ sampler1-confade;
#X obj -1996 -206 s~ sampler2-confade;
#X obj -2146 -280 *~ 1;
#X obj -1991 -283 *~ 1;
#X obj -1941 -440 loadbang;
#X msg -1952 -413 1;
#X obj -1923 -375 s volumen-fade;
#X connect 0 0 46 0;
#X connect 1 0 23 0;
#X connect 2 0 1 1;
#X connect 3 0 2 0;
#X connect 4 0 3 0;
#X connect 5 0 11 0;
#X connect 6 0 5 1;
#X connect 7 0 6 0;
#X connect 8 0 7 0;
#X connect 9 0 38 0;
#X connect 10 0 41 0;
#X connect 12 0 48 0;
#X connect 13 0 28 0;
#X connect 14 0 13 1;
#X connect 15 0 14 0;
#X connect 16 0 15 0;
#X connect 17 0 21 0;
#X connect 18 0 17 1;
#X connect 19 0 18 0;
#X connect 20 0 19 0;
#X connect 22 0 1 0;
#X connect 24 0 25 0;
#X connect 26 0 5 0;
#X connect 27 0 13 0;
#X connect 29 0 30 0;
#X connect 31 0 17 0;
#X connect 32 0 33 0;
#X connect 33 0 0 0;
#X connect 34 0 35 0;
#X connect 35 0 12 0;
#X connect 36 0 38 1;
#X connect 38 0 53 0;
#X connect 39 0 36 0;
#X connect 40 0 41 1;
#X connect 41 0 54 0;
#X connect 42 0 40 0;
#X connect 45 0 24 0;
#X connect 46 0 45 0;
#X connect 47 0 29 0;
#X connect 48 0 47 0;
#X connect 49 0 28 0;
#X connect 50 0 23 0;
#X connect 53 0 37 0;
#X connect 53 0 51 0;
#X connect 54 0 43 0;
#X connect 54 0 52 0;
#X connect 55 0 56 0;
#X connect 56 0 57 0;
