#N canvas 206 183 450 300 10;
#X obj 12 446 *~;
#X obj 12 485 tabread4~ sample;
#X obj 13 414 phasor~ 1;
#X obj 37 434 r duracion;
#X obj 28 320 r segundos;
#X obj 12 344 expr 1 / $f1;
#X obj -135 533 hsl 200 10 0 1 0 0 slide empty empty -2 -8 0 10 -262144
-1 -1 13542 1;
#X obj 128 526 *~;
#X obj 131 561 hip~ 5;
#X obj 181 504 line~;
#X msg 183 468 \$1 20;
#X floatatom 183 444 5 0 0 0 - - -;
#X obj 110 336 t b f;
#X obj 114 308 hsl 128 15 0 1 0 0 empty empty empty -2 -8 0 10 -262144
-1 -1 0 1;
#X obj 110 382 *;
#X floatatom 110 359 5 0 0 0 - - -;
#X obj 197 382 r playback-speed-notamidi;
#X obj 489 409 bng 15 250 50 0 empty empty empty 17 7 0 10 -262144
-1 -1;
#X obj 404 394 bng 15 250 50 0 empty empty empty 17 7 0 10 -262144
-1 -1;
#X msg 415 455 0;
#X msg 471 458 1;
#X obj 132 288 r playback-octavador;
#X text 19 361 lector;
#X text 147 586 salida;
#X obj -132 506 iemlib/unsig~ 1;
#X obj 437 436 bng 15 250 50 0 empty empty empty 17 7 0 10 -262144
-1 -1;
#X floatatom 629 390 5 0 0 0 - - -;
#X floatatom 612 445 5 0 0 0 - - -;
#X obj 616 423 * 1000;
#X obj 597 371 r segundos;
#X obj 580 464 del 100 1 msec;
#X obj 117 615 dac~;
#X text 582 347 control por teclado;
#X obj 404 301 mousestate;
#X obj 405 323 sel 0;
#X obj 458 381 r nota-\$1;
#X connect 0 0 1 0;
#X connect 1 0 7 0;
#X connect 2 0 0 0;
#X connect 2 0 24 0;
#X connect 3 0 0 1;
#X connect 4 0 5 0;
#X connect 5 0 2 0;
#X connect 7 0 8 0;
#X connect 8 0 31 0;
#X connect 8 0 31 1;
#X connect 9 0 7 1;
#X connect 10 0 9 0;
#X connect 11 0 10 0;
#X connect 12 0 15 0;
#X connect 12 1 14 1;
#X connect 13 0 12 0;
#X connect 14 0 2 1;
#X connect 15 0 14 0;
#X connect 16 0 2 0;
#X connect 17 0 20 0;
#X connect 17 0 30 0;
#X connect 18 0 19 0;
#X connect 19 0 9 0;
#X connect 19 0 2 0;
#X connect 19 0 2 1;
#X connect 20 0 9 0;
#X connect 21 0 13 0;
#X connect 24 0 6 0;
#X connect 25 0 19 0;
#X connect 26 0 28 0;
#X connect 27 0 30 1;
#X connect 28 0 27 0;
#X connect 29 0 26 0;
#X connect 30 0 18 0;
#X connect 33 0 34 0;
#X connect 35 0 17 0;
